/* XPM */
static char * top_left_inactive_xpm[] = {
"2 26 4 1",
" 	c None",
".	c #3A3C40",
"+	c #3A3C40",
"@	c #3A3C40",
" .",
".+",
".@",
".@",
".@",
".@",
".@",
".@",
".@",
".@",
".@",
".@",
".@",
".@",
".@",
".@",
".@",
".@",
".@",
".@",
".@",
".@",
".@",
".@",
".@",
".@"};
